<?xml version="1.0" encoding="UTF-8" standalone="no"?>
<svg
   id="Layer_1"
   style="enable-background:new 0 0 128 128;"
   version="1.1"
   viewBox="0 0 128 128"
   xml:space="preserve"
   sodipodi:docname="4213442_account_avatar_head_person_profile_icon.svg"
   inkscape:version="1.4 (86a8ad7, 2024-10-11)"
   xmlns:inkscape="http://www.inkscape.org/namespaces/inkscape"
   xmlns:sodipodi="http://sodipodi.sourceforge.net/DTD/sodipodi-0.dtd"
   xmlns="http://www.w3.org/2000/svg"
   xmlns:svg="http://www.w3.org/2000/svg"><defs
     id="defs1" /><sodipodi:namedview
     id="namedview1"
     pagecolor="#505050"
     bordercolor="#eeeeee"
     borderopacity="1"
     inkscape:showpageshadow="0"
     inkscape:pageopacity="0"
     inkscape:pagecheckerboard="0"
     inkscape:deskcolor="#505050"
     inkscape:zoom="2.2373301"
     inkscape:cx="89.168784"
     inkscape:cy="85.369613"
     inkscape:window-width="1920"
     inkscape:window-height="1002"
     inkscape:window-x="-8"
     inkscape:window-y="-8"
     inkscape:window-maximized="1"
     inkscape:current-layer="Layer_1" /><g
     id="g1"
     style="fill:#f7f7ee;fill-opacity:1"><polygon
       points="43,45 43,81 53,81 53,127 81,127 81,81 91,81 91,45 83,45 83,73 73,73 73,119 61,119 61,73 51,73 51,45  "
       id="polygon1"
       style="fill:#f7f7ee;fill-opacity:1" /><path
       d="M81,15c0-7.7-6.3-14-14-14S53,7.3,53,15s6.3,14,14,14S81,22.7,81,15z M61,15c0-3.3,2.7-6,6-6s6,2.7,6,6s-2.7,6-6,6   S61,18.3,61,15z"
       id="path1"
       style="fill:#f7f7ee;fill-opacity:1" /></g></svg>
