<?xml version="1.0" encoding="UTF-8" standalone="no"?>
<svg
   viewBox="0 0 256 256"
   version="1.1"
   id="svg6"
   sodipodi:docname="9025675_handshake_icon.svg"
   inkscape:version="1.4 (86a8ad7, 2024-10-11)"
   xmlns:inkscape="http://www.inkscape.org/namespaces/inkscape"
   xmlns:sodipodi="http://sodipodi.sourceforge.net/DTD/sodipodi-0.dtd"
   xmlns="http://www.w3.org/2000/svg"
   xmlns:svg="http://www.w3.org/2000/svg">
  <defs
     id="defs6" />
  <sodipodi:namedview
     id="namedview6"
     pagecolor="#505050"
     bordercolor="#eeeeee"
     borderopacity="1"
     inkscape:showpageshadow="0"
     inkscape:pageopacity="0"
     inkscape:pagecheckerboard="0"
     inkscape:deskcolor="#505050"
     inkscape:zoom="0.79101563"
     inkscape:cx="6.9530864"
     inkscape:cy="51.832098"
     inkscape:window-width="1920"
     inkscape:window-height="1002"
     inkscape:window-x="-8"
     inkscape:window-y="-8"
     inkscape:window-maximized="1"
     inkscape:current-layer="svg6" />
  <rect
     fill="none"
     height="256"
     width="256"
     id="rect1"
     style="stroke:#f7f7ee;stroke-opacity:1" />
  <path
     d="M240.7,121.8,216,134.1,184,72.9l25-12.5a7.9,7.9,0,0,1,10.6,3.4l24.6,47.1A8,8,0,0,1,240.7,121.8Z"
     fill="none"
     stroke="#000"
     stroke-linecap="round"
     stroke-linejoin="round"
     stroke-width="16"
     id="path1"
     style="stroke:#f7f7ee;stroke-opacity:1" />
  <path
     d="M40,133.1,15.3,120.7a7.9,7.9,0,0,1-3.5-10.8L36.4,62.8A8,8,0,0,1,47,59.3L72,71.8Z"
     fill="none"
     stroke="#000"
     stroke-linecap="round"
     stroke-linejoin="round"
     stroke-width="16"
     id="path2"
     style="stroke:#f7f7ee;stroke-opacity:1" />
  <path
     d="M216,134.1l-16,18.8-36.8,36.8a8.5,8.5,0,0,1-7.6,2.1l-58-14.5a8,8,0,0,1-2.9-1.5L40,133.1"
     fill="none"
     stroke="#000"
     stroke-linecap="round"
     stroke-linejoin="round"
     stroke-width="16"
     id="path3"
     style="stroke:#f7f7ee;stroke-opacity:1" />
  <path
     d="M200,152.9l-44-32-12.8,9.6a32.1,32.1,0,0,1-38.4,0l-5.4-4.1a8.1,8.1,0,0,1-.9-12.1l39.2-39.1a7.9,7.9,0,0,1,5.6-2.3H184"
     fill="none"
     stroke="#000"
     stroke-linecap="round"
     stroke-linejoin="round"
     stroke-width="16"
     id="path4"
     style="stroke:#f7f7ee;stroke-opacity:1" />
  <path
     d="M72.6,71.8l51.3-15a8,8,0,0,1,5.5.4L164,72.9"
     fill="none"
     stroke="#000"
     stroke-linecap="round"
     stroke-linejoin="round"
     stroke-width="16"
     id="path5"
     style="stroke:#f7f7ee;stroke-opacity:1" />
</svg>
